<svg xmlns="http://www.w3.org/2000/svg" viewBox="0 0 1000 615.07" role="img" aria-label="TGM Group">
  <title>TGM Group</title>
  <g transform="scale(0.2243158) translate(0,2742) scale(0.1,-0.1)">
    <path id="bars" fill="#177E6E" d="M34410 27359 l-11 -20 0 -4787 c0 -2633 0 -4811 0 -4839 l1 -53 38 0
37 0 130 129 c233 231 557 563 684 701 68 74 267 279 441 455 174 176 351 359
392 407 42 48 94 106 115 130 158 171 279 299 486 511 l237 244 0 3552 0 3552
-10 20 -11 19 -1259 0 -1259 0 -11 -21z M31205 24243 l-590 -3 -12 -16 -12
-16 5 -2690 5 -2691 9 -17 c5 -9 35 -36 67 -61 81 -61 300 -256 393 -350 14
-14 95 -85 180 -158 85 -74 196 -172 246 -220 122 -117 229 -213 419 -376 88
-76 165 -143 170 -150 6 -6 48 -45 95 -86 47 -41 108 -95 135 -120 135 -125
398 -362 474 -429 120 -105 186 -166 255 -232 l59 -58 39 0 38 0 0 3818 0
3818 -13 18 -13 17 -679 3 c-374 1 -945 1 -1270 -1z M26777 21286 l-17 -17 0
-2770 0 -2769 46 0 46 0 91 83 c50 45 267 256 481 468 215 212 427 419 471
459 44 41 387 378 763 750 l682 675 0 1546 0 1545 -13 19 -14 18 -1259 5
-1260 5 -17 -17z"/>
    <path id="arrow" fill="#F0BC20" d="M44425 25586 l-20 -14 -65 -12 -64 -12 -46 -23 c-25 -13 -64 -27 -86
-31 -21 -3 -51 -13 -66 -20 -15 -8 -58 -21 -95 -30 l-68 -16 -30 -18 -30 -18
-68 -16 c-37 -9 -77 -22 -90 -30 -12 -7 -47 -19 -77 -26 -30 -7 -71 -21 -90
-31 -20 -9 -60 -24 -90 -33 -69 -20 -197 -62 -275 -91 -33 -13 -78 -26 -100
-30 -21 -4 -55 -15 -75 -24 -19 -10 -57 -24 -85 -30 -27 -7 -61 -19 -74 -28
l-24 -16 -86 -22 c-47 -13 -122 -36 -166 -53 -157 -59 -239 -86 -356 -117 -47
-12 -96 -28 -109 -35 -14 -7 -54 -21 -90 -31 -83 -23 -210 -65 -280 -94 -30
-13 -73 -26 -95 -30 -21 -4 -55 -15 -75 -24 -19 -10 -57 -23 -84 -30 -27 -7
-66 -21 -87 -32 -21 -10 -62 -24 -90 -30 -29 -6 -75 -22 -103 -35 -28 -13 -60
-24 -70 -24 -11 0 -49 -13 -85 -29 -71 -31 -154 -60 -266 -92 -38 -11 -74 -24
-80 -29 -6 -5 -46 -18 -90 -30 -44 -12 -85 -25 -91 -31 -6 -5 -44 -17 -85 -28
-41 -11 -96 -28 -124 -39 -60 -23 -157 -57 -240 -82 -33 -10 -80 -27 -105 -39
-25 -11 -54 -21 -65 -21 -11 0 -43 -11 -72 -24 l-51 -24 -59 -12 c-32 -7 -74
-20 -93 -30 -20 -10 -60 -25 -90 -34 -84 -23 -180 -55 -235 -78 -27 -11 -88
-30 -135 -43 -47 -13 -137 -42 -200 -64 -63 -22 -123 -41 -132 -41 l-18 0 0
-49 0 -50 33 -22 c17 -13 75 -59 129 -104 353 -294 364 -303 468 -380 119 -88
123 -91 378 -321 79 -71 162 -143 185 -160 l42 -31 3 -44 3 -44 -166 -170
c-192 -198 -543 -559 -630 -649 -33 -34 -109 -116 -169 -182 -60 -65 -235
-247 -390 -404 -279 -284 -398 -407 -530 -550 -38 -41 -184 -194 -325 -340
-441 -456 -495 -514 -546 -570 -54 -61 -475 -496 -710 -734 -82 -84 -188 -194
-235 -246 -105 -116 -590 -613 -684 -701 -38 -35 -128 -131 -200 -214 -72 -82
-210 -231 -306 -329 -435 -446 -511 -526 -580 -606 -93 -108 -168 -187 -410
-435 -107 -111 -278 -291 -380 -400 -102 -110 -243 -259 -315 -332 l-129 -133
-46 0 -45 0 -236 203 c-129 111 -257 225 -285 253 -27 27 -102 97 -168 154
-65 58 -173 154 -240 213 -66 59 -231 203 -366 319 -135 116 -257 223 -271
237 -53 54 -317 289 -443 394 -44 38 -101 88 -126 111 -25 24 -133 118 -240
211 -107 93 -208 180 -223 194 -16 14 -43 39 -60 55 -18 16 -57 52 -87 80 -30
29 -91 84 -136 124 l-81 72 -43 0 -43 0 -86 -77 c-47 -42 -205 -197 -351 -343
-146 -146 -393 -392 -550 -547 -157 -155 -358 -355 -447 -445 -89 -90 -273
-271 -409 -403 -137 -132 -395 -385 -574 -562 -179 -176 -410 -404 -515 -504
-104 -101 -311 -304 -460 -451 -148 -147 -367 -360 -485 -475 -118 -114 -222
-216 -230 -227 l-14 -20 -4 -1266 -4 -1265 7 -432 7 -433 41 0 41 0 655 658
c361 362 980 979 1376 1372 1008 1000 1673 1674 1919 1943 l98 107 39 0 39 0
218 -187 c119 -102 237 -206 262 -229 25 -24 64 -56 86 -73 23 -16 62 -49 86
-73 25 -23 87 -81 139 -128 51 -47 105 -97 119 -111 14 -15 63 -59 110 -99 47
-40 137 -121 200 -180 63 -59 201 -181 305 -271 192 -165 226 -196 389 -350
50 -48 111 -104 136 -125 25 -22 72 -64 105 -95 66 -61 153 -139 315 -281 58
-50 126 -112 152 -138 25 -26 84 -80 130 -120 109 -96 241 -217 396 -362 l126
-118 47 0 47 0 38 43 c67 75 208 230 229 251 11 12 81 91 155 176 73 85 186
209 249 275 64 66 153 161 197 210 132 147 244 273 328 369 44 50 102 116 130
147 59 65 78 86 170 194 38 44 110 125 161 180 114 123 134 145 243 268 48 54
141 158 207 230 206 227 337 375 353 399 18 26 58 72 193 219 53 57 127 140
164 184 67 78 313 354 344 386 56 57 254 272 286 309 22 25 82 90 135 145 53
55 109 118 125 140 16 22 66 78 111 125 45 47 118 126 161 176 148 172 367
419 439 494 39 41 131 145 204 230 73 85 142 165 154 176 32 33 60 65 231 264
87 102 186 214 219 250 106 113 220 242 235 264 17 25 70 85 160 181 36 39
100 109 141 155 41 47 81 92 90 100 9 8 47 51 85 95 39 44 101 114 140 156 38
41 133 151 210 244 77 93 179 209 226 259 47 50 157 174 244 276 87 102 192
221 235 265 42 44 84 91 93 103 8 13 53 65 99 114 45 50 100 114 121 142 21
28 80 94 130 147 142 148 350 376 418 459 110 134 156 187 310 359 l85 96 43
3 43 3 46 -41 c26 -22 144 -123 262 -222 118 -100 244 -209 280 -242 98 -91
267 -237 335 -288 33 -25 76 -61 95 -80 32 -31 120 -106 233 -200 l45 -38 41
0 41 0 0 39 0 39 24 93 c13 52 31 139 40 194 8 55 22 120 31 144 8 24 20 73
25 108 6 36 17 83 25 106 16 43 64 266 95 437 28 155 59 308 85 420 30 126 66
297 95 440 12 58 41 193 66 300 81 355 149 669 180 830 16 81 46 221 93 425
17 72 35 162 41 200 7 39 20 102 30 140 10 39 22 99 25 134 l7 65 19 53 18 54
11 82 c6 45 22 120 35 167 13 47 29 111 34 143 6 32 19 86 30 120 10 35 22 90
26 122 3 33 17 98 30 145 l24 85 10 80 c6 45 15 94 21 110 15 39 40 224 40
298 l0 57 -42 -1 -43 0 -20 -13z M40405 18508 c-115 -118 -234 -245 -355 -377
-52 -58 -158 -170 -236 -250 -77 -80 -160 -168 -185 -196 -24 -27 -90 -98
-147 -156 -57 -59 -113 -120 -125 -136 -12 -16 -54 -63 -93 -104 -39 -40 -91
-96 -115 -124 -24 -27 -69 -75 -99 -105 -88 -89 -285 -301 -325 -350 -20 -25
-76 -86 -123 -135 -48 -50 -107 -113 -132 -140 -79 -87 -324 -350 -336 -360
-10 -9 -86 -93 -341 -376 -61 -68 -131 -144 -156 -169 l-44 -45 -6 -205 -7
-205 -2 -2811 -2 -2812 13 -16 13 -16 1474 0 1474 0 15 23 15 23 0 4434 c0
2439 0 4495 0 4568 l0 132 -43 0 -42 0 -90 -92z M28559 12447 c-223 -226 -459
-468 -525 -537 -65 -69 -287 -296 -494 -505 -206 -209 -448 -454 -537 -545
-88 -91 -277 -277 -418 -415 -142 -137 -309 -305 -372 -373 l-113 -123 0 -139
0 -139 19 -11 20 -10 1439 0 1440 0 13 17 14 16 3 1589 3 1588 -43 0 -43 0
-406 -413z"/>
    <path id="wordmark" fill="#27364A" d="M18130 22420 c-69 -4 -181 -13 -250 -19 -69 -7 -210 -18 -315 -26
l-190 -14 -75 -15 c-41 -8 -129 -22 -195 -31 -66 -9 -144 -22 -172 -31 -29 -8
-101 -21 -160 -29 -60 -8 -130 -22 -158 -30 -27 -9 -90 -23 -138 -31 l-88 -14
-37 -16 c-20 -8 -69 -21 -108 -29 l-71 -13 -61 -26 c-34 -14 -70 -26 -81 -26
-12 0 -49 -11 -84 -24 -35 -13 -90 -29 -123 -36 -32 -7 -72 -19 -88 -27 -16
-8 -57 -23 -90 -33 -81 -24 -227 -79 -241 -89 -5 -5 -37 -18 -71 -29 -92 -30
-612 -283 -689 -334 -22 -15 -44 -28 -50 -28 -5 0 -28 -14 -49 -30 -22 -17
-44 -30 -49 -30 -5 0 -21 -9 -35 -20 -15 -11 -138 -94 -274 -184 -137 -91
-260 -174 -275 -186 -275 -210 -329 -260 -679 -625 -258 -269 -419 -456 -516
-600 -15 -22 -40 -57 -55 -77 -52 -69 -110 -154 -127 -183 -9 -17 -32 -50 -51
-75 -18 -25 -57 -83 -85 -130 -29 -47 -69 -112 -91 -145 -21 -33 -51 -82 -66
-109 -96 -168 -94 -164 -181 -346 -27 -58 -55 -122 -61 -142 -7 -21 -16 -40
-21 -43 -5 -3 -16 -29 -26 -58 -9 -28 -27 -72 -40 -97 -13 -25 -24 -50 -24
-56 0 -7 -15 -45 -34 -85 -57 -125 -86 -196 -86 -210 0 -8 -11 -37 -24 -66
l-24 -51 -12 -59 c-7 -32 -23 -85 -35 -118 -13 -33 -30 -87 -39 -120 -8 -33
-30 -116 -49 -185 -79 -289 -108 -404 -122 -497 -9 -54 -24 -143 -35 -198 -10
-55 -24 -147 -30 -205 -6 -58 -17 -139 -25 -180 -20 -106 -24 -157 -42 -500
l-17 -305 0 -225 0 -225 12 -160 c6 -88 16 -236 22 -330 l10 -170 20 -100 c11
-55 24 -149 30 -210 l11 -110 18 -70 c11 -38 25 -108 31 -155 7 -47 19 -100
27 -119 7 -19 20 -76 28 -127 l15 -92 16 -38 c9 -20 22 -71 30 -113 8 -42 21
-94 30 -116 9 -22 24 -71 34 -110 18 -68 39 -138 81 -260 12 -33 29 -89 39
-125 22 -78 66 -185 90 -220 9 -14 23 -43 30 -65 7 -22 21 -52 31 -67 11 -14
19 -30 19 -35 0 -4 48 -103 107 -220 157 -309 157 -309 171 -326 8 -9 23 -34
35 -56 67 -122 78 -140 87 -146 6 -3 19 -23 30 -43 11 -20 36 -57 55 -82 19
-25 59 -81 90 -125 30 -44 70 -99 88 -121 17 -23 54 -70 81 -105 27 -35 63
-82 80 -104 17 -22 75 -92 130 -155 l99 -115 196 -190 c109 -104 215 -205 237
-223 21 -19 65 -57 97 -85 31 -28 68 -57 81 -66 13 -9 50 -36 82 -61 79 -60
109 -82 173 -127 30 -21 67 -47 82 -58 15 -11 60 -42 101 -69 40 -27 84 -57
98 -67 71 -53 705 -381 780 -404 14 -4 45 -18 70 -31 25 -13 49 -24 55 -24 5
0 37 -13 70 -29 90 -43 251 -107 360 -143 33 -11 89 -30 125 -43 108 -38 361
-116 535 -165 74 -21 187 -47 375 -85 41 -9 125 -27 185 -40 61 -13 165 -31
230 -39 66 -8 149 -22 185 -30 l65 -16 190 -10 190 -11 140 -19 140 -20 285
-11 285 -11 315 7 c173 3 367 11 430 16 63 5 266 20 450 34 l335 25 130 19
c72 11 155 23 185 26 141 15 545 99 750 156 58 16 114 29 124 29 20 0 187 46
306 84 41 13 100 30 130 36 30 7 71 21 90 31 20 9 54 20 75 24 22 4 65 18 95
30 30 13 84 33 120 45 142 47 204 71 215 80 7 6 36 19 66 29 66 23 147 55 214
86 109 49 231 108 255 121 14 9 41 22 60 30 52 23 261 123 295 141 92 49 121
66 143 84 14 10 29 19 35 19 6 0 27 10 46 23 20 13 65 41 101 62 36 20 81 47
100 59 40 25 273 182 368 248 53 37 175 132 340 266 157 126 221 177 268 212
26 19 67 52 91 74 l43 39 0 2952 0 2953 -15 12 -14 12 -3071 -2 -3070 -1 -15
-5 -15 -6 2 -1222 3 -1221 1668 -5 1669 -5 14 -20 14 -19 -2 -1042 -3 -1043
-20 -27 -20 -27 -86 -46 c-47 -25 -112 -61 -145 -80 -58 -33 -80 -45 -234
-128 -41 -22 -113 -57 -160 -77 -47 -21 -107 -48 -135 -61 -90 -42 -179 -76
-245 -95 -36 -11 -94 -29 -130 -40 -152 -50 -218 -69 -274 -80 -32 -7 -83 -21
-114 -31 -30 -10 -65 -19 -76 -19 -12 0 -70 -13 -131 -29 -60 -16 -162 -42
-225 -56 l-115 -27 -160 -20 c-196 -23 -300 -34 -475 -47 l-135 -11 -350 0
-350 0 -120 11 c-147 12 -492 64 -560 83 -27 8 -79 20 -115 26 -92 16 -380
101 -485 142 -27 11 -77 30 -110 43 -161 62 -199 78 -315 138 -69 35 -152 80
-185 100 -33 21 -69 43 -80 50 -11 6 -34 22 -52 34 -17 12 -62 44 -100 69
-184 126 -550 466 -653 606 -69 95 -95 129 -121 161 -14 18 -34 46 -43 62 -9
17 -32 50 -51 75 -42 55 -83 123 -157 260 -108 197 -247 495 -264 565 -4 17
-17 51 -30 76 -13 26 -30 73 -38 105 -8 33 -23 84 -34 114 -11 30 -28 84 -37
120 -16 64 -21 89 -70 320 -24 112 -55 325 -75 503 -5 48 -14 212 -21 365
l-12 279 12 254 11 254 15 95 c8 52 21 154 30 225 l15 131 15 49 c8 28 22 92
31 144 l16 94 18 42 c10 23 23 68 30 99 6 32 19 74 27 94 9 21 26 73 38 117
23 79 63 192 90 250 7 17 18 49 24 72 6 23 25 67 41 98 17 32 30 64 30 72 0 8
9 31 19 51 11 20 41 80 66 132 26 52 64 124 86 160 22 36 47 81 57 100 26 51
68 113 152 224 41 54 89 118 107 142 17 23 88 102 156 176 l124 133 124 112
c68 61 141 124 161 140 21 15 72 55 114 88 150 118 272 188 609 350 74 35 206
92 235 100 14 4 41 16 60 26 47 25 137 56 240 83 47 12 106 30 130 39 25 9 79
21 120 28 41 6 93 18 115 26 l40 14 149 20 c82 11 153 22 157 25 5 3 75 11
156 19 l148 15 295 6 295 6 255 -11 255 -12 80 -15 c44 -8 150 -23 235 -34
l155 -19 40 -14 c22 -8 80 -20 130 -27 l90 -13 53 -18 c29 -10 81 -23 115 -29
59 -11 196 -52 302 -90 28 -10 73 -25 100 -34 77 -23 238 -81 260 -93 43 -24
178 -83 188 -83 7 0 34 -11 62 -24 27 -14 95 -45 150 -69 55 -25 132 -64 170
-86 39 -22 93 -52 120 -66 90 -45 332 -220 497 -357 l45 -38 41 0 42 0 212
213 c232 232 559 571 737 765 63 67 117 122 121 122 5 0 106 104 227 231 120
128 271 285 336 350 l118 119 -3 42 -3 42 -90 78 c-90 79 -200 166 -377 300
-32 24 -80 57 -108 73 -53 31 -218 136 -259 164 -63 43 -377 231 -386 231 -5
0 -16 6 -24 14 -30 25 -317 166 -339 166 -7 0 -30 9 -50 19 -60 31 -190 91
-199 91 -4 0 -30 11 -58 24 -80 39 -266 114 -370 148 -33 11 -76 27 -95 35
-35 16 -133 45 -290 88 -47 12 -102 30 -123 39 -20 9 -70 23 -110 31 -39 9
-88 22 -108 30 -20 7 -77 21 -125 30 -49 10 -97 21 -107 27 -10 5 -62 18 -115
28 -53 10 -123 26 -154 34 -31 8 -108 22 -170 31 -62 9 -149 25 -193 35 -44
10 -116 22 -160 25 -44 4 -126 16 -183 26 l-104 19 -136 10 c-75 5 -189 15
-252 20 -223 21 -448 32 -715 35 l-270 3 -125 -8z M3520 22200 l-3435 -5 0
-1255 0 -1255 580 0 c319 0 1197 -1 1951 -2 l1370 -3 20 -14 19 -14 0 -5266 0
-5265 11 -11 11 -11 1475 3 1475 3 16 14 17 13 0 4763 0 4762 7 482 6 483 26
16 25 17 1956 -3 1956 -4 12 14 12 15 1 1252 2 1252 -9 9 -9 9 -2030 3 c-1117
2 -3576 1 -5465 -2z M6955 6405 l-170 -12 -40 -11 c-22 -6 -80 -16 -130 -22
l-90 -10 -115 -31 c-108 -29 -299 -90 -435 -139 -98 -35 -312 -139 -354 -172
-13 -10 -29 -18 -35 -18 -6 0 -29 -14 -50 -30 -22 -17 -43 -30 -48 -30 -6 0
-176 -110 -262 -170 -12 -8 -73 -58 -136 -112 l-115 -96 -81 -89 c-113 -122
-121 -132 -294 -373 -19 -27 -44 -64 -55 -82 -11 -18 -29 -46 -40 -63 -11 -16
-29 -45 -40 -64 -11 -18 -31 -50 -44 -70 -13 -20 -28 -49 -34 -66 -5 -16 -18
-42 -29 -57 -10 -15 -25 -44 -32 -65 -7 -21 -23 -54 -35 -73 -11 -19 -21 -41
-21 -48 0 -7 -13 -48 -29 -90 -41 -107 -89 -268 -96 -322 -4 -25 -15 -74 -25
-110 l-19 -65 -11 -110 c-7 -60 -20 -170 -31 -243 l-19 -133 0 -212 0 -212 11
-44 c5 -24 18 -127 29 -230 l19 -186 20 -63 c11 -34 22 -82 26 -105 6 -41 50
-198 81 -287 46 -132 64 -179 83 -215 12 -21 21 -45 21 -52 0 -16 129 -262
154 -293 6 -8 20 -31 29 -50 10 -19 32 -58 50 -86 44 -70 67 -102 183 -255 89
-117 307 -319 533 -494 38 -29 126 -86 201 -130 36 -21 76 -46 90 -55 14 -10
44 -26 65 -37 22 -11 49 -24 60 -30 11 -6 65 -32 120 -58 55 -26 111 -52 125
-60 14 -7 48 -20 75 -28 28 -9 73 -25 100 -36 60 -24 251 -81 274 -81 9 0 61
-11 116 -25 l100 -25 175 -11 175 -10 35 -10 35 -9 295 0 295 0 65 10 c36 5
144 14 240 20 l175 11 75 19 c41 10 98 22 125 25 28 4 89 20 138 36 48 16 96
29 106 29 11 0 56 14 101 30 45 17 89 30 98 30 8 0 34 9 56 20 23 11 66 28 96
39 85 30 182 72 210 91 14 10 36 21 50 25 14 4 43 20 64 36 22 16 45 29 52 29
7 0 25 10 41 23 15 13 42 29 60 36 17 7 39 21 49 32 9 10 22 19 28 19 6 0 40
20 76 46 36 25 89 62 119 82 29 20 63 44 75 52 42 29 101 75 164 128 34 28 66
52 71 52 4 0 20 11 35 25 l26 24 0 1345 0 1345 -11 7 -12 7 -1303 0 -1304 1
-11 -11 -11 -11 4 -513 3 -514 8 -12 8 -13 704 0 704 0 15 -16 16 -15 0 -258
c0 -142 3 -373 7 -513 l6 -255 -34 -36 -34 -36 -50 -27 c-178 -95 -391 -196
-475 -224 -77 -25 -208 -63 -300 -85 l-105 -26 -150 -16 -150 -15 -210 5 -210
6 -90 11 -90 10 -35 14 c-19 7 -66 19 -105 26 l-70 13 -35 17 c-20 10 -61 26
-93 35 -31 9 -59 20 -62 25 -3 5 -27 16 -53 24 -135 45 -394 221 -559 379
l-83 80 -73 96 c-40 53 -82 109 -92 125 -57 83 -77 115 -100 161 -14 28 -32
61 -40 75 -36 66 -76 159 -84 200 -6 25 -19 70 -30 100 -11 30 -24 83 -31 117
-6 35 -18 82 -26 105 l-15 43 -15 165 -14 165 0 170 0 170 14 135 14 135 20
65 c11 36 25 89 31 118 6 30 16 63 22 74 6 11 20 52 30 90 11 38 26 79 34 91
8 12 21 41 29 64 8 23 24 55 34 70 11 15 38 57 61 93 22 36 51 80 63 99 34 50
153 186 238 271 l75 76 75 49 c41 27 89 60 106 74 18 14 55 40 83 56 29 17 75
45 104 63 78 49 244 128 310 147 33 9 78 25 100 35 l42 18 140 17 c77 9 165
20 195 25 l55 9 175 0 175 0 60 -14 60 -15 45 0 c52 0 186 -24 221 -40 13 -5
60 -19 104 -29 72 -17 183 -57 226 -81 9 -5 65 -34 125 -66 60 -31 121 -65
136 -75 14 -11 29 -19 33 -19 4 0 39 -21 77 -47 38 -27 84 -57 101 -68 57 -35
202 -146 210 -161 l8 -14 47 0 47 0 85 88 c47 48 116 124 155 167 38 44 124
139 190 211 66 71 153 167 193 211 l72 82 0 45 0 46 -109 96 c-107 94 -253
204 -300 224 -13 6 -37 21 -52 35 -16 13 -39 27 -51 30 -13 4 -32 15 -43 25
-11 10 -37 26 -57 37 -20 10 -78 39 -129 66 -51 26 -97 47 -104 47 -6 0 -29 9
-50 21 -36 18 -68 31 -215 83 -94 33 -150 49 -310 91 l-165 42 -195 26 -195
26 -165 11 -165 10 -155 -1 c-85 -1 -231 -7 -325 -14z M22335 6408 l-160 -8
-90 -20 c-49 -11 -127 -24 -172 -30 l-82 -9 -36 -15 c-20 -9 -68 -22 -108 -30
-40 -9 -124 -34 -187 -57 -63 -22 -140 -50 -170 -60 -30 -11 -82 -33 -115 -48
-152 -72 -202 -97 -225 -112 -14 -9 -77 -47 -140 -84 -229 -136 -466 -317
-590 -451 -64 -69 -197 -227 -223 -264 -10 -14 -31 -43 -47 -65 -17 -22 -52
-74 -79 -115 -27 -41 -60 -88 -73 -104 -27 -34 -34 -46 -108 -193 -30 -59 -62
-119 -71 -133 -9 -14 -22 -45 -29 -70 -6 -25 -20 -58 -30 -75 -21 -35 -76
-198 -113 -335 l-26 -95 -16 -118 c-9 -65 -20 -128 -24 -140 -14 -37 -21 -105
-30 -282 l-9 -170 9 -270 8 -270 15 -55 c9 -30 20 -100 26 -155 l11 -100 19
-70 c11 -38 26 -104 35 -145 9 -41 27 -103 40 -137 14 -34 25 -69 25 -79 0 -9
14 -47 31 -83 18 -36 45 -95 62 -131 52 -114 93 -191 142 -270 19 -30 41 -68
51 -85 20 -37 93 -145 134 -200 16 -22 37 -51 47 -65 67 -97 362 -393 488
-489 22 -17 56 -42 75 -56 19 -14 55 -40 80 -59 25 -19 81 -56 125 -81 44 -26
92 -56 106 -66 15 -9 42 -24 60 -33 19 -8 45 -22 59 -30 29 -17 278 -136 286
-136 3 0 46 -15 97 -34 144 -52 246 -84 322 -101 39 -8 93 -22 122 -29 l51
-14 139 -11 c76 -6 201 -16 278 -22 l140 -11 265 4 265 5 195 16 c296 26 456
60 695 152 33 12 76 26 95 30 32 6 68 22 215 91 28 13 66 30 85 39 19 8 62 31
95 49 33 19 76 44 96 55 19 11 64 39 99 63 86 59 98 68 155 111 28 21 73 56
100 77 65 49 209 182 265 245 25 27 54 58 66 70 30 29 147 166 167 195 9 14
33 45 52 70 19 25 46 65 60 90 14 25 40 68 57 95 42 67 83 140 109 195 12 25
30 56 39 70 10 14 23 45 30 70 7 24 20 60 31 80 30 56 69 159 91 239 10 41 25
86 33 100 7 14 20 67 29 116 10 50 26 122 36 160 l19 70 6 75 c4 41 14 127 23
190 l16 115 1 265 0 265 -12 52 c-7 29 -17 105 -23 170 l-10 118 -25 100 c-13
55 -31 132 -39 170 -7 39 -23 95 -33 125 -26 73 -51 145 -70 200 -38 115 -172
393 -223 462 -11 15 -20 30 -20 34 0 8 -123 194 -165 249 -95 126 -145 183
-255 294 -109 110 -244 226 -344 296 -32 22 -72 50 -89 63 -60 43 -102 70
-182 117 -44 26 -91 55 -105 64 -35 23 -149 78 -200 96 -24 8 -49 20 -56 26
-13 10 -87 40 -216 84 -36 13 -79 30 -95 38 -15 8 -55 20 -88 27 -33 7 -87 21
-120 32 l-60 19 -139 20 c-77 11 -144 22 -148 25 -5 3 -100 12 -211 20 l-202
14 -165 -2 c-91 0 -237 -5 -325 -10z m633 -1091 l43 -17 67 -6 67 -6 115 -35
c63 -19 139 -45 168 -59 29 -13 57 -24 63 -24 9 0 99 -48 224 -119 22 -13 52
-33 67 -45 16 -11 46 -34 67 -51 22 -16 68 -50 103 -75 l63 -45 136 -136 137
-135 21 -40 c20 -35 38 -63 87 -132 17 -24 82 -152 121 -238 45 -99 75 -181
98 -264 13 -47 28 -98 34 -114 l12 -29 14 -151 15 -151 0 -165 0 -165 -15
-174 -15 -174 -30 -111 c-62 -227 -89 -301 -178 -486 -44 -91 -146 -242 -236
-349 -96 -115 -308 -301 -454 -397 -48 -32 -98 -65 -112 -74 -33 -22 -189 -96
-220 -105 -14 -4 -35 -13 -46 -20 -12 -8 -50 -21 -85 -30 -35 -9 -87 -25 -116
-35 l-52 -19 -87 -11 c-47 -6 -111 -17 -142 -25 l-56 -15 -147 0 -147 0 -78
14 c-44 8 -124 20 -179 26 l-100 12 -35 15 c-19 8 -62 23 -95 33 -252 76 -510
228 -744 439 l-83 75 -83 96 c-45 52 -97 117 -116 144 -19 27 -46 66 -61 88
-15 21 -36 55 -47 76 -10 20 -40 77 -65 127 -26 49 -53 112 -61 140 -8 27 -23
77 -34 110 -11 33 -31 103 -45 155 l-26 95 -25 204 -25 204 0 149 0 149 26
172 26 172 19 55 c11 30 24 75 30 99 5 24 21 68 34 98 14 29 25 59 25 66 0 7
16 44 35 83 19 38 35 72 35 76 0 6 26 51 91 158 40 65 73 109 172 226 l89 104
63 56 c35 31 78 66 96 78 82 54 112 74 169 114 34 23 65 42 69 42 4 0 23 12
42 26 19 14 50 34 69 44 19 10 74 38 123 63 48 25 102 49 120 53 17 3 56 17
84 31 l53 24 126 14 c69 8 131 18 136 21 6 4 45 10 87 14 l76 8 190 -2 190 -3
43 -16z M28566 6303 l-410 -3 -8 -13 -8 -12 0 -1925 0 -1925 15 -150 c8 -82
19 -168 24 -190 6 -22 17 -88 26 -147 l16 -107 19 -56 c11 -31 24 -84 30 -118
l12 -61 18 -36 c10 -20 21 -54 25 -75 4 -22 17 -62 30 -90 76 -163 110 -233
127 -255 11 -14 35 -50 53 -80 44 -72 82 -121 188 -247 l88 -103 91 -77 c50
-43 102 -86 117 -95 14 -10 46 -33 71 -52 58 -44 237 -152 320 -192 189 -92
295 -131 500 -180 l145 -34 190 -17 190 -16 333 -4 333 -4 232 26 231 27 41
13 c22 8 58 17 80 20 47 8 199 55 307 96 42 16 82 29 88 29 18 0 259 120 315
157 159 104 294 211 384 303 62 64 226 256 254 298 73 111 90 141 127 222 11
25 30 63 41 85 11 22 26 63 33 90 8 28 23 73 34 100 33 80 61 173 82 268 11
48 26 111 35 140 l15 52 21 205 22 205 4 1951 3 1951 -16 14 -17 14 -594 -1
-594 -1 -7 -7 -7 -8 -6 -1961 -6 -1962 -12 -105 c-29 -271 -110 -486 -257
-680 -61 -80 -270 -270 -297 -270 -6 0 -24 -10 -41 -23 -36 -27 -177 -97 -195
-97 -6 0 -37 -11 -69 -24 l-57 -24 -92 -11 c-51 -6 -105 -16 -120 -23 l-28
-11 -191 -5 -192 -5 -73 17 c-41 9 -117 22 -169 30 l-95 15 -85 30 c-105 37
-260 116 -343 175 l-63 45 -55 58 c-75 80 -165 198 -195 258 -14 28 -31 61
-39 75 -8 14 -27 56 -44 93 l-30 68 -11 60 c-6 33 -21 95 -33 137 l-22 77 -5
2035 -5 2035 -90 6 c-49 4 -142 6 -205 6 -63 -1 -299 -3 -524 -4z M35973 6299
l-13 -13 0 -3065 0 -3066 8 -13 8 -12 600 2 599 3 5 976 5 976 14 16 13 17
752 1 751 1 90 7 c144 12 365 41 435 57 36 9 113 26 171 39 59 13 117 28 129
35 12 7 50 20 84 30 131 39 356 145 473 224 15 11 53 35 83 55 59 38 158 120
218 181 85 86 227 276 269 360 10 19 25 47 35 61 36 54 130 321 173 494 l34
140 16 183 15 183 0 112 0 112 -15 170 -16 170 -24 80 c-13 44 -27 98 -31 120
-13 74 -105 295 -155 370 -43 65 -122 185 -145 218 -12 18 -75 85 -140 149
l-119 118 -62 42 c-34 24 -85 57 -113 73 -28 17 -70 42 -93 57 -23 15 -47 28
-53 28 -6 0 -27 11 -46 24 -20 13 -53 29 -74 36 -22 7 -55 21 -74 31 -45 23
-163 64 -270 94 -47 13 -110 30 -140 38 -82 23 -325 67 -431 79 l-94 10 -1430
5 -1430 4 -12 -12z m2832 -1032 c33 -9 100 -24 149 -32 l89 -15 71 -31 c255
-107 402 -238 510 -449 l38 -75 24 -82 c13 -45 29 -115 35 -155 l11 -72 -5
-166 -4 -165 -27 -88 c-14 -48 -26 -95 -26 -105 0 -18 -72 -166 -114 -235 -35
-57 -124 -154 -181 -195 -84 -61 -162 -112 -171 -112 -5 0 -27 -9 -49 -21 -21
-12 -84 -36 -139 -54 l-101 -33 -55 -6 c-30 -4 -87 -14 -127 -22 l-71 -16
-721 4 -720 3 -18 18 -18 18 0 1040 0 1041 20 14 20 15 760 -4 760 -4 60 -16z
M12590 6290 l-185 -5 -8 -300 -7 -300 5 -85 c3 -47 5 -1292 6 -2767 l0 -2681
16 -14 16 -13 580 2 579 1 8 9 8 8 5 980 5 979 22 18 22 18 590 0 590 0 26
-28 c15 -15 44 -55 65 -87 20 -33 53 -80 72 -105 55 -70 122 -168 163 -234 9
-15 31 -46 47 -67 17 -21 40 -53 53 -71 12 -18 50 -71 85 -118 34 -47 71 -98
82 -114 62 -88 88 -126 168 -243 49 -70 100 -144 113 -163 60 -89 71 -104 95
-133 14 -18 34 -45 43 -62 9 -16 32 -50 51 -75 19 -25 68 -94 108 -155 40 -60
82 -123 93 -139 10 -16 30 -45 44 -66 66 -99 79 -116 96 -132 l19 -17 325 -3
c179 -2 490 -2 693 0 l367 2 0 44 0 45 -46 68 c-26 37 -65 91 -88 118 -54 65
-85 107 -178 240 -69 98 -136 189 -270 366 -43 57 -116 156 -153 209 -11 15
-64 92 -118 171 -53 79 -111 162 -127 184 -16 22 -37 51 -47 65 -10 14 -60 81
-110 150 -51 69 -102 139 -113 155 -11 17 -41 62 -67 100 -26 39 -73 108 -105
155 l-58 85 0 42 0 42 55 20 c31 12 62 21 69 21 7 0 25 9 39 20 14 11 45 29
68 39 24 11 55 27 69 35 14 8 59 33 100 57 41 24 87 52 101 64 15 11 56 40 90
65 l64 44 151 151 151 150 29 44 c43 65 103 164 110 181 3 8 17 39 31 68 14
30 31 75 39 100 7 26 22 74 33 107 11 33 32 98 45 145 l25 85 25 212 26 211 0
136 0 136 -25 187 -26 188 -30 90 c-55 165 -121 315 -190 429 -27 44 -52 78
-180 244 -40 51 -165 173 -244 237 -77 62 -214 148 -255 160 -14 4 -36 15 -50
25 -14 10 -36 21 -50 25 -14 4 -50 20 -80 35 -30 15 -71 31 -90 35 -19 4 -48
14 -65 23 -56 29 -245 78 -450 115 l-140 26 -122 11 -121 10 -1299 -2 c-714
-1 -1381 -5 -1483 -8z m2715 -1031 c22 -5 85 -16 140 -24 l100 -13 55 -26 c30
-14 63 -26 72 -26 51 0 225 -112 337 -215 l60 -57 25 -41 c14 -23 43 -80 65
-126 l41 -83 32 -117 33 -116 -1 -175 0 -175 -33 -125 -32 -125 -32 -65 c-105
-215 -300 -378 -562 -470 -116 -41 -141 -49 -260 -77 l-120 -28 -790 3 -790 4
-18 20 -17 21 2 998 3 998 17 17 16 17 529 7 c290 3 654 7 808 8 l280 2 40
-11z"/>
  </g>
</svg>
